<svg class="binnicon alcancia" xmlns="http://www.w3.org/2000/svg" viewBox="0 0 111.62 129.13">
  <path d="M51.43 85.36a3.28 3.28 0 1 0 3.28 3.28 3.3 3.3 0 0 0-3.2-3.28zm10.95 6.56a3.28 3.28 0 1 0-3.28-3.28 3.3 3.3 0 0 0 3.28 3.28z"/>
  <path d="M111.62 65.66a65.46 65.46 0 0 0-6-27.6l1.05-7.68-4.46.44h-.4C95.78 21.54 87 15.66 75 12.9a20.78 20.78 0 0 0-38.45 0c-11.93 2.76-20.7 8.65-26.67 18h-.5l-4.45-.44L6 38.06a65.5 65.5 0 0 0-6 27.6c0 18.06 7.18 35 19.7 46.7v10.18a6.6 6.6 0 0 0 6.6 6.6h16.77a2.9 2.9 0 0 0 2.93-2.9V126a50.06 50.06 0 0 0 19.7 0v.3a2.87 2.87 0 0 0 2.86 2.86h16.38a7 7 0 0 0 7-7v-9.8c12.5-11.7 19.68-28.64 19.68-46.7zm-74.4 24.08a19.7 19.7 0 1 1 19.7 19.7 19.72 19.72 0 0 1-19.7-19.7zM41.6 60.2a3.28 3.28 0 1 1 3.26 3.26 3.3 3.3 0 0 1-3.3-3.28zm24.06 0a3.28 3.28 0 1 1 3.28 3.26 3.3 3.3 0 0 1-3.3-3.28zm-30.4-42.5v.26a19.65 19.65 0 0 0 .4 7.76 30.57 30.57 0 0 0-6 4.6 2.2 2.2 0 0 0 3.1 3.1 26.48 26.48 0 0 1 6.24-4.6l.22-.12c.52-.27 1-.5 1.48-.72s.73-.33 1.1-.48l.9-.37c.6-.22 1.22-.4 1.83-.6q1.27-.38 2.6-.67l.68-.15 2.3-.3.5-.03c.76-.1 1.54-.14 2.34-.2.54 0 1.08-.05 1.63-.05h.4c1.06 0 2.12.05 3.2.14q1.84.15 3.65.5a36.3 36.3 0 0 1 3.54.83l.25.1c1.1.32 2.2.7 3.25 1.13l.14.07a32.18 32.18 0 0 1 3.1 1.5l.8.44.5.28a25.23 25.23 0 0 1 4.6 3.6 2.2 2.2 0 0 0 3.1-3.1 29.5 29.5 0 0 0-5.2-4.1 20.15 20.15 0 0 0 .8-5.6 20.73 20.73 0 0 0-.2-2.8v-.27c8.82 2.48 15.55 7 20.44 13.7l-.3.07-.9.17c-.5.1-1 .2-1.46.32l-.9.24-1.33.4-.9.3-1.24.5-.85.34-1.25.54-.8.36-1.35.64-.67.34-1.57.8-.43.28-2 1.1-2.7 1.44a42.28 42.28 0 0 0-44.67 0l-2.7-1.43-2-1.06-.5-.23-1.5-.8-.7-.37-1.3-.65-.84-.4-1.24-.54-.88-.32-1.26-.43-.9-.3-1.34-.4-.95-.23-1.45-.3-.9-.2-.3-.06c4.87-6.76 11.6-11.27 20.43-13.74zM4.36 65.66A61.63 61.63 0 0 1 7.6 45.8c0 .06.05.1.08.17.22.5.46 1 .7 1.45v.07l.8 1.3.28.3.68 1 .25.34.9 1.2A23.08 23.08 0 0 1 15 57.7l.94 2.5a42.2 42.2 0 0 0 3.7 37.9v8A59.8 59.8 0 0 1 4.32 65.6zM46 121.5V117a41.26 41.26 0 0 0 19.7 0v4.5a46.55 46.55 0 0 1-19.7 0zm46-23.35a42.2 42.2 0 0 0 3.7-37.9l.94-2.54a23.1 23.1 0 0 1 3.73-6l.9-1.2.25-.3.7-1 .25-.4c.28-.4.55-.83.8-1.3v-.05c.26-.47.5-.96.7-1.46l.1-.17a61.6 61.6 0 0 1 3.2 19.86 59.8 59.8 0 0 1-15.3 40.5z"/>
</svg>
