<svg class="binnicon pilamonedas" xmlns="http://www.w3.org/2000/svg" viewBox="0 0 141.26 152.31">
  <path d="M70.63 85.23c-31.1 0-57.5-10.06-70.63-25.1v3C.3 84 32 101 70.63 101c38.16 0 70.5-17.4 70.63-38v-2.8c-13.14 14.97-39.53 25.03-70.63 25.03z"/>
  <path d="M70.63 109.9c-31 0-57.47-10.1-70.63-25.15v4c.3 20.8 32 37.8 70.63 37.8 38.16 0 70.5-17.4 70.63-38v-3.8C128.1 99.82 101.7 109.9 70.63 109.9z"/>
  <path d="M70.63 135.5c-31 0-57.47-10.1-70.63-25.15v4.17c.3 20.8 32 37.8 70.63 37.8 38.16 0 70.5-17.4 70.63-38v-3.92c-13.15 15-39.55 25.1-70.63 25.1zM85.48 48a3.24 3.24 0 0 0-2.2-3 23.33 23.33 0 0 0-6.76-1.54v8.9q8.96-.75 8.96-4.36zM58 31.37A25.37 25.37 0 0 0 65 33v-9.1q-5.27.38-7.3 1.54a3.38 3.38 0 0 0-2 2.92 3.3 3.3 0 0 0 2.3 3z"/>
  <path d="M70.63 76.3c38.3 0 70.63-17.47 70.63-38.15S108.92 0 70.63 0 0 17.47 0 38.15 32.35 76.3 70.63 76.3zm-29-53.06a14.5 14.5 0 0 1 5-4.22 31.58 31.58 0 0 1 7.9-2.87A68.5 68.5 0 0 1 65 14.63V9.75h11.52v4.74q5.27.17 10.73.76a88.34 88.34 0 0 1 10 1.64v9.4a116.63 116.63 0 0 0-20.74-2.66v10.53q4.57.47 9 1.26a36.25 36.25 0 0 1 7.97 2.28 16.18 16.18 0 0 1 5.7 3.93 8.86 8.86 0 0 1 2.2 6.2q0 6.08-6.46 9.54t-18.37 4.3v4.88H65V61.9q-7.08-.14-13.33-.83a59.9 59.9 0 0 1-10.37-1.92v-9.3q2.82.67 5.5 1.17t5.48.85q2.82.36 5.93.57t6.8.26V42.32q-4.54-.43-9-1.16A36.82 36.82 0 0 1 47.95 39a16.14 16.14 0 0 1-5.82-3.9 8.83 8.83 0 0 1-2.24-6.25 9.38 9.38 0 0 1 1.73-5.6z"/>
</svg>
