<svg class="binnicon cajafuerte" xmlns="http://www.w3.org/2000/svg" viewBox="0 0 140.73 151.71">
  <path d="M125.63 0H15.1A15.12 15.12 0 0 0 0 15.1v108.63a15.12 15.12 0 0 0 15.1 15.1h110.53a15.12 15.12 0 0 0 15.1-15.1V15.1A15.12 15.12 0 0 0 125.63 0zm7.76 123.73a7.77 7.77 0 0 1-7.78 7.76H15.1a7.77 7.77 0 0 1-7.76-7.78V15.1a7.77 7.77 0 0 1 7.76-7.76h110.53a7.77 7.77 0 0 1 7.76 7.76z"/>
  <path d="M91.73 149.27a2.45 2.45 0 0 0 2.45 2.45H115a2.45 2.45 0 0 0 2.45-2.45v-5.54H91.73z"/>
  <path d="M23.24 149.27a2.45 2.45 0 0 0 2.45 2.45h20.85a2.45 2.45 0 0 0 2.44-2.45v-5.54H23.23z"/>
  <path d="M126.7 30.58h-8.63a2.45 2.45 0 0 0-2.45 2.42v14.78a2.44 2.44 0 0 0 2.45 2.44h8.64a2.44 2.44 0 0 0 2.47-2.44V33a2.44 2.44 0 0 0-2.45-2.42z"/>
  <path d="M112.87 111a7.3 7.3 0 0 1-2.15-5.2V91a7.35 7.35 0 0 1 7.34-7.34h4.32V55.12h-4.32a7.34 7.34 0 0 1-7.34-7.34V33a7.35 7.35 0 0 1 7.34-7.34h4.32v-7.3h-104v102.12h104v-7.34h-4.32a7.3 7.3 0 0 1-5.2-2.14zm-66.2-23.85A15.3 15.3 0 1 1 62 71.85a15.3 15.3 0 0 1-15.34 15.3z"/>
  <circle cx="46.66" cy="71.86" r="5.2"/>
  <path d="M126.7 88.6h-8.63a2.45 2.45 0 0 0-2.45 2.4v14.8a2.44 2.44 0 0 0 2.45 2.45h8.64a2.45 2.45 0 0 0 2.47-2.45V91a2.44 2.44 0 0 0-2.45-2.4z"/>
</svg>
