<svg class="binnicon statsup" xmlns="http://www.w3.org/2000/svg" viewBox="0 0 143.09 131.46">
  <path d="M45.73 50L27.38 69.28c-5.5 5.8-11 11.63-16.53 17.4-3.27 3.38-8 2.9-10.1-.93-1.36-2.55-.9-5 1.57-7.58q8.74-9.24 17.52-18.44C26.74 52.48 33.6 45.2 40.54 38c3-3.15 6.33-3.12 9.43-.12.46.44.9.9 1.34 1.37 7.08 7.3 22.6 24 22.6 24l42.9-44.62-8.74-8.53L143.1 0l-8.7 35.3c-1.8-1.7-8.78-8.42-8.78-8.42S93.67 60.14 79.52 74.7a10.38 10.38 0 0 1-4.6 2.67c-2.46.65-4.35-.83-6.05-2.6C61.67 67.27 46.34 51 45.73 50z"/>
  <path d="M126.52 38.38l7.43 7.73.07 85.37h-18.28l.06-81.97 10.72-11.12M93.1 131.46V74.9s12.46-14.47 18.14-20.4c.08 1.16 0 1.83 0 2.5 0 23.84.05 74.47.05 74.47zM47.53 66.73l18.2 18.58v46.17H47.5l.03-64.73m-4.73 64.72H24.9l-.04-46.07L42.8 65.3v66.16M70.4 86.3c7.64 1.65 13.22-2.38 18.1-7.8v1.78c0 16.14.06 51.18.06 51.18h-18.2s-.1-44.46.04-45.15zM2.3 97.24c7.7 1.7 13.12-1.57 18-7.6v41.82H2.23s-.06-33.68.05-34.22z"/>
</svg>
