<svg class="binnicon escudodinero" xmlns="http://www.w3.org/2000/svg" viewBox="0 0 149.58 133.99">
  <path d="M53.65 5.67c19.66-7.58 53-7.56 72 0v5.6c.08 10.1 5.54 17.44 15.13 20.32 8.85 2.6 9.36 2.8 8.53 12.2-3.3 38.3-20 68.3-54.7 87.1-3.7 2-6.4 1.8-10-.2C50.5 112 33 83 30.5 44.6v-.73c.1-3.12-.85-6.95.63-9.15 1.4-2 5.3-2.4 8.2-3.33 8.8-2.9 14.2-10.1 14.4-19.4.06-2.2 0-4.3 0-6.4zm-13.7 36c.53 4.78.78 9.57 1.62 14.26 5.15 28.6 19.95 50.5 45.46 64.82a5.42 5.42 0 0 0 4.45.34c30-16.9 45.13-43 47.45-76.9.13-2-.34-3-2.38-3.7-11.9-3.9-18.47-12.4-20.46-24.6-.4-2.4-1.3-3.1-3.5-3.6a98.3 98.3 0 0 0-45.6 0c-2.5.5-3.5 1.3-4 4-1.8 11.7-8.2 19.7-19.3 24l-3.8 1.3zm-27.1 78.63V134H67.4v-7.45q-4.4-3-8.34-6.22zm29.05-17.94H9v13.27h44.7a97.17 97.17 0 0 1-11.8-13.27zM0 66.86V80.1h29.78a103.2 103.2 0 0 1-4.07-13.3zM12.86 84.7V98h26a93.5 93.5 0 0 1-7.22-13.3zm3.2-34.45V63.2h8.87a121.87 121.87 0 0 1-1.85-12.95z"/>
  <path d="M93.5 89l-.32 6.33h-6.86L86 89.55l-12-2.88c-1.86-.45-2.8-1.43-2.65-3.55.2-2.74 0-5.5 0-8.5 4.12 1.25 8 2.58 12 3.6a15.26 15.26 0 0 0 6 .5c1.65-.26 3.14-1.55 4.7-2.38-1.1-1.27-1.95-3-3.32-3.7-3.5-1.8-7.32-3-10.9-4.67-4.86-2.26-8.16-5.8-8.55-11.48-.43-6.3 2.35-10.8 8.2-12.9 2-.8 4.14-1.1 6.34-1.7l.4-4.4H93l.4 4 13.9 3.5-4 9.5c-4.85-.9-9.26-2-13.73-2.4-1.44-.2-3 1.2-4.56 2 1.2 1.3 2 3.2 3.5 4 4.4 2.2 9.2 3.6 13.4 6.1 6.1 3.6 7.7 11.1 4.3 17.3-1.9 3.4-5.1 5.3-8.7 6.4-1.14.3-2.42.5-3.8.9z"/>
</svg>
