<svg class="grafico-planeacion" xmlns="http://www.w3.org/2000/svg" viewBox="0 0 638 526">
  <style>
    .cuerpo-grafico{
      fill: rgba(151,190,19,.85);
      fill: rgba(0, 102, 232, .85);
      stroke:#FFFFFF;
      stroke-width:2;
      stroke-miterlimit:10;
    } 
    .bolita,
    .grafico-txt{
      fill:white;
    } 
    .grafico-txt{
      font-family: Raleway, arial;
      font-size:16px;
    }
  </style>
  <path class="cuerpo-grafico" d="M74.4 465.7v-147l59.3 27.7c4.8 2.2 10.5 1.2 14.1-2.7l56.9-59.5c2.7-2.9 6.6-4.2 10.6-3.7l54.9 7.3c3.9.5 7.8-.9 10.6-3.7l58.1-60.8c3-3.2 7.6-4.5 11.9-3.5l54.3 13.3c3.8.9 7.9 0 10.9-2.6l58.1-49.2c2.8-2.4 6.5-3.4 10.1-2.7l53.4 9.5c5 .9 10-1.3 12.6-5.6l62.9-100.9v384H74.4z"/>
  <circle class="bolita" cx="75.1" cy="315.9" r="10.2"/>
  <circle class="bolita" cx="139.7" cy="347" r="10.2"/>
  <circle class="bolita" cx="210.3" cy="281" r="10.2"/>
  <circle class="bolita" cx="275" cy="287" r="10.2"/>
  <circle class="bolita" cx="343.7" cy="221.6" r="10.2"/>
  <circle class="bolita" cx="478.3" cy="179.6" r="10.2"/>
  <circle class="bolita" cx="410.1" cy="231.6" r="10.2"/>
  <circle class="bolita" cx="541.6" cy="189.8" r="10.2"/>
  <circle class="bolita" cx="612.9" cy="81.7" r="10.2"/>
  <text transform="translate(32.932 471.773)" class="grafico-txt"> 0 </text>
  <text transform="translate(23.236 383.337)" class="grafico-txt"> 60 </text>
  <text transform="translate(17.172 294.902)" class="grafico-txt"> 120 </text>
  <text transform="translate(16.164 206.466)" class="grafico-txt"> 180 </text>
  <text transform="translate(15.444 118.03)" class="grafico-txt"> 240 </text>
  <text transform="translate(14.468 29.596)" class="grafico-txt"> 300 </text>
  <text transform="translate(119.172 505.99)" class="grafico-txt"> 2011  </text>
  <text transform="translate(520.282 505.99)" class="grafico-txt"> 2017 </text>
  <text transform="translate(607.888 505.99)" class="grafico-txt ">... </text>
  <text transform="translate(452.1 505.99)" class="grafico-txt"> 2016 </text>
  <text transform="translate(184.234 505.99)" class="grafico-txt"> 2012 </text>
  <text transform="translate(250.995 505.99)" class="grafico-txt"> 2013 </text>
  <text transform="translate(317.857 505.99)" class="grafico-txt"> 2014 </text>
  <text transform="translate(385.08 505.99)" class="grafico-txt"> 2015 </text>
</svg>