<?xml version="1.0" encoding="utf-8"?>
<!-- Generator: Adobe Illustrator 21.1.0, SVG Export Plug-In . SVG Version: 6.00 Build 0)  -->
<svg version="1.1" id="Capa_3" xmlns="http://www.w3.org/2000/svg" xmlns:xlink="http://www.w3.org/1999/xlink" x="0px" y="0px"
	 viewBox="0 0 640 480" style="enable-background:new 0 0 640 480;" xml:space="preserve">
<g>
	<g>
		<rect x="280.6" y="217.8" width="22.2" height="18.2"/>
		<rect x="310.1" y="202.5" width="22.2" height="33.4"/>
		<rect x="338.4" y="191" width="22.2" height="44.9"/>
	</g>
	<g>
		<rect x="280.6" y="285" width="22.2" height="2.2"/>
		<rect x="338.4" y="285.1" width="22.2" height="2.1"/>
		<g>
			<path d="M315.1,284.3l-1,1.3c-0.3-0.4-0.8-0.7-1.2-0.7c-0.6,0-1.1,0.5-1.1,1.3c0,0.7,0.5,1.3,1.1,1.3c0.4,0,0.8-0.2,1.2-0.6
				l1,1.1c-0.6,0.7-1.5,1.1-2.3,1.1c-1.6,0-2.8-1.2-2.8-2.8c0-1.6,1.2-2.8,2.8-2.8C313.7,283.3,314.6,283.7,315.1,284.3"/>
			<path d="M321,286.1c0,1.6-1.2,2.8-2.9,2.8c-1.7,0-2.9-1.2-2.9-2.8c0-1.6,1.2-2.8,2.9-2.8C319.8,283.3,321,284.5,321,286.1
				 M317,286.2c0,0.8,0.5,1.3,1.1,1.3c0.6,0,1.1-0.6,1.1-1.3c0-0.8-0.5-1.3-1.1-1.3C317.5,284.9,317,285.4,317,286.2"/>
			<path d="M323.7,287.5H323v1.4h-1.7v-5.5h2.5c1.4,0,2.2,0.7,2.2,2c0,0.8-0.3,1.4-0.8,1.7l1,1.8h-2L323.7,287.5z M323.8,286.1
				c0.4,0,0.6-0.2,0.6-0.7c0-0.4-0.2-0.6-0.6-0.6H323v1.3H323.8z"/>
			<path d="M328.9,283.4c1.4,0,2.1,0.7,2.1,2c0,1.3-0.8,2.1-2.1,2.1h-0.7v1.4h-1.7v-5.5H328.9z M328.2,286.1h0.6
				c0.4,0,0.6-0.2,0.6-0.7c0-0.4-0.2-0.6-0.6-0.6h-0.6V286.1z"/>
		</g>
	</g>
	<g>
		<path d="M292.7,243.9c1.5,0,2.9,0.6,4,1.7c1.1,1.1,1.7,2.5,1.7,4c0,1.5-0.6,2.9-1.7,4c-1.1,1.1-2.5,1.7-4,1.7h-10.4v-11.4H292.7
			 M292.7,242.3h-12v14.6h12c4,0,7.3-3.3,7.3-7.3C300,245.6,296.8,242.3,292.7,242.3"/>
		<path d="M296.6,261.5c2.1,0,4.2,0.8,5.7,2.4c1.5,1.5,2.4,3.5,2.4,5.7c0,2.1-0.8,4.2-2.4,5.7c-1.5,1.5-3.5,2.4-5.7,2.4h-14.2v-16.1
			H296.6 M296.6,259.9h-15.9v19.3h15.9c5.3,0,9.7-4.3,9.7-9.7C306.2,264.2,301.9,259.9,296.6,259.9"/>
		<polygon points="311.5,280 307.1,280 307.1,241.5 311.5,241.5 311.5,243.1 308.7,243.1 308.7,278.4 311.5,278.4 		"/>
		<polygon points="317,280 312.6,280 312.6,278.4 315.3,278.4 315.3,243.1 312.6,243.1 312.6,241.5 317,241.5 		"/>
		<rect x="332.8" y="267.1" width="1.6" height="12.9"/>
		<polygon points="358.9,239.8 358.9,276.7 332.8,239.7 332.8,258 334.4,258 334.4,244.8 360.6,281.8 360.6,239.8 		"/>
		<polygon points="344.2,262.4 344.2,276.7 318,239.7 318,280 319.7,280 319.7,244.8 345.8,281.8 345.8,262.4 		"/>
	</g>
</g>
</svg>
