<svg xmlns="http://www.w3.org/2000/svg" viewBox="0 0 199.49 199.68">  
  <style>
    .forma-deco{fill:rgb(151,190,19);}
  </style>
  <path class="forma-deco arc01" d="M99.74 142.35a42.41 42.41 0 0 1-32.24-14.82l-49.93 28.83a99.6 99.6 0 0 0 164.35 0L132 127.53a42.41 42.41 0 0 1-32.26 14.82z"/>
  <path class="forma-deco arc02" d="M142.31 99.68a42.69 42.69 0 0 1-2.35 14l49.94 28.84A100.1 100.1 0 0 0 107.74 0v57.77a42.65 42.65 0 0 1 34.57 41.91z"/>
  <path class="forma-deco arc03" d="M57.18 99.68a42.65 42.65 0 0 1 34.56-41.91V0A100.1 100.1 0 0 0 9.58 142.49l49.94-28.84a42.69 42.69 0 0 1-2.34-13.97z"/>
</svg>